<?xml version="1.0" encoding="UTF-8"?>
<svg width="149px" height="31px" viewBox="0 0 149 31" version="1.1" xmlns="http://www.w3.org/2000/svg" xmlns:xlink="http://www.w3.org/1999/xlink">
    <!-- Generator: Sketch 55 (78076) - https://sketchapp.com -->
    <title>Artboard Copy 2</title>
    <desc>Created with Sketch.</desc>
    <g id="Artboard-Copy-2" stroke="none" stroke-width="1" fill="none" fill-rule="evenodd">
        <g id="Group-Copy-2">
            <path d="M25.3794965,16.1687663 C27.0593758,16.1687663 28.454947,16.5951908 29.5662517,17.4480526 C30.6775565,18.3009144 31.4270299,19.4574293 31.8146943,20.9176321 L29.4693361,20.9176321 C29.1462824,20.0906146 28.6326347,19.4348254 27.9283776,18.9502448 C27.2241205,18.4656642 26.36158,18.2233776 25.3407303,18.2233776 C24.5266349,18.2233776 23.799775,18.4236679 23.1601286,18.8242545 C22.5204823,19.2248411 22.016526,19.7966376 21.6482448,20.5396611 C21.2799636,21.2826847 21.0958257,22.1516861 21.0958257,23.1466916 C21.0958257,24.1287749 21.2799636,24.9913153 21.6482448,25.7343389 C22.016526,26.4773624 22.5204823,27.0491589 23.1601286,27.4497455 C23.799775,27.8503321 24.5266349,28.0506224 25.3407303,28.0506224 C26.36158,28.0506224 27.2241205,27.8083358 27.9283776,27.3237552 C28.6326347,26.8391746 29.1462824,26.1898464 29.4693361,25.375751 L31.8146943,25.375751 C31.4270299,26.8359538 30.6775565,27.9892383 29.5662517,28.835639 C28.454947,29.6820397 27.0593758,30.1052337 25.3794965,30.1052337 C24.0872817,30.1052337 22.9436887,29.8112593 21.9486833,29.2233015 C20.9536778,28.6353438 20.1848215,27.8147996 19.6420913,26.7616445 C19.099361,25.7084894 18.828,24.5035172 18.828,23.1466916 C18.828,21.789866 19.099361,20.5848937 19.6420913,19.5317386 C20.1848215,18.4785835 20.9536778,17.6548089 21.9486833,17.06039 C22.9436887,16.4659712 24.0872817,16.1687663 25.3794965,16.1687663 Z M42.1846667,27.0233167 L36.4084952,27.0233167 L35.3618064,29.988935 L32.997065,29.988935 L38.0366777,16.5176625 L40.5758672,16.5176625 L45.5960968,29.988935 L43.2313555,29.988935 L42.1846667,27.0233167 Z M41.5644066,25.3176017 L39.2965809,18.9211701 L37.0287552,25.3176017 L41.5644066,25.3176017 Z M54.4348022,29.988935 L51.0233721,24.5228935 L49.4533389,24.5228935 L49.4533389,29.988935 L47.2436625,29.988935 L47.2436625,16.3044481 L52.0700609,16.3044481 C53.6336408,16.3044481 54.8192302,16.6856458 55.6268645,17.4480526 C56.4344987,18.2104593 56.8383098,19.2183718 56.8383098,20.4718202 C56.8383098,21.5443585 56.5378744,22.4230514 55.9369945,23.1079253 C55.3361146,23.7927992 54.4671131,24.2321456 53.329964,24.4259779 L56.9158423,29.988935 L54.4348022,29.988935 Z M49.4533389,22.9528603 L51.8956127,22.9528603 C53.6788692,22.9528603 54.5704841,22.1646211 54.5704841,20.5881189 C54.5704841,19.8386343 54.3540414,19.2539159 53.9211494,18.8339461 C53.4882574,18.4139762 52.8130853,18.2039945 51.8956127,18.2039945 L49.4533389,18.2039945 L49.4533389,22.9528603 Z M65.9677621,22.9334772 C66.7947796,23.1014651 67.4634908,23.4955847 67.9739156,24.1158479 C68.4843405,24.736111 68.7395491,25.4597404 68.7395491,26.286758 C68.7395491,27.423907 68.3583514,28.3252134 67.5959447,28.990704 C66.8335379,29.6561947 65.7287108,29.988935 64.2814302,29.988935 L58.8347718,29.988935 L58.8347718,16.3044481 L64.1845145,16.3044481 C65.5542623,16.3044481 66.6041711,16.6113446 67.3342725,17.2251466 C68.0643739,17.8389487 68.4294191,18.6821062 68.4294191,19.7546445 C68.4294191,20.6204285 68.2032849,21.3214445 67.7510097,21.8577137 C67.2987345,22.3939829 66.7043246,22.7525671 65.9677621,22.9334772 Z M61.0444481,22.1969184 L63.7774689,22.1969184 C64.5527978,22.1969184 65.1439772,22.016011 65.5510249,21.6541909 C65.9580726,21.2923707 66.1615934,20.7884145 66.1615934,20.1423071 C66.1615934,19.5091218 65.9580726,19.0116265 65.5510249,18.6498064 C65.1439772,18.2879862 64.5269539,18.1070788 63.6999364,18.1070788 L61.0444481,18.1070788 L61.0444481,22.1969184 Z M63.8356183,28.1669212 C64.6755579,28.1669212 65.3248861,27.9763223 65.7836224,27.5951189 C66.2423587,27.2139156 66.4717234,26.6808849 66.4717234,25.9960111 C66.4717234,25.3111372 66.2391282,24.7748761 65.7739308,24.3872116 C65.3087335,23.9995472 64.6561748,23.8057178 63.8162351,23.8057178 L61.0444481,23.8057178 L61.0444481,28.1669212 L63.8356183,28.1669212 Z M77.1518257,16.13 C78.4181963,16.13 79.5650198,16.427205 80.5923306,17.0216238 C81.6196414,17.6160426 82.4272635,18.4462782 83.0152213,19.5123555 C83.6031791,20.5784327 83.8971535,21.783405 83.8971535,23.1273084 C83.8971535,24.4712119 83.6031791,25.6761842 83.0152213,26.7422614 C82.4272635,27.8083387 81.6196414,28.6418047 80.5923306,29.2426846 C79.5650198,29.8435646 78.4181963,30.144 77.1518257,30.144 C75.872533,30.144 74.7192486,29.8435646 73.6919378,29.2426846 C72.664627,28.6418047 71.8537743,27.8083387 71.2593555,26.7422614 C70.6649366,25.6761842 70.3677317,24.4712119 70.3677317,23.1273084 C70.3677317,21.783405 70.6649366,20.5784327 71.2593555,19.5123555 C71.8537743,18.4462782 72.664627,17.6160426 73.6919378,17.0216238 C74.7192486,16.427205 75.872533,16.13 77.1518257,16.13 Z M77.1518257,18.1846113 C76.2731196,18.1846113 75.4913414,18.3849016 74.8064675,18.7854882 C74.1215936,19.1860748 73.588563,19.7611018 73.2073596,20.5105864 C72.8261562,21.2600711 72.6355574,22.132303 72.6355574,23.1273084 C72.6355574,24.1223139 72.8261562,24.9945458 73.2073596,25.7440304 C73.588563,26.493515 74.1215936,27.068542 74.8064675,27.4691286 C75.4913414,27.8697152 76.2731196,28.0700055 77.1518257,28.0700055 C78.0176097,28.0700055 78.7896965,27.8697152 79.4681093,27.4691286 C80.1465221,27.068542 80.6763222,26.493515 81.0575256,25.7440304 C81.438729,24.9945458 81.6293278,24.1223139 81.6293278,23.1273084 C81.6293278,22.132303 81.438729,21.2600711 81.0575256,20.5105864 C80.6763222,19.7611018 80.1465221,19.1860748 79.4681093,18.7854882 C78.7896965,18.3849016 78.0176097,18.1846113 77.1518257,18.1846113 Z M92.3869627,16.1881494 C94.0151534,16.1881494 95.3719586,16.58873 96.4574191,17.3899032 C97.5428796,18.1910764 98.260048,19.2829816 98.6089461,20.6656515 L96.282971,20.6656515 C95.9857615,19.929089 95.4979577,19.34114 94.819545,18.901787 C94.1411322,18.4624339 93.3367405,18.2427607 92.4063458,18.2427607 C91.553484,18.2427607 90.7878582,18.443051 90.1094454,18.8436376 C89.4310326,19.2442242 88.9012324,19.8127902 88.520029,20.5493527 C88.1388257,21.2859152 87.9482268,22.1516861 87.9482268,23.1466916 C87.9482268,24.1933856 88.1420562,25.0914614 88.5297206,25.8409461 C88.9173851,26.5904307 89.4633376,27.1622272 90.1675947,27.5563527 C90.8718518,27.9504782 91.6891655,28.147538 92.6195602,28.147538 C93.7567092,28.147538 94.7323168,27.7954148 95.5464122,27.0911577 C96.3605075,26.3869006 96.8515418,25.4209845 97.0195297,24.1933804 L91.9993001,24.1933804 L91.9993001,22.5651978 L98.8803098,22.5651978 L98.8803098,24.6779585 C98.725244,25.6858861 98.3666598,26.6001144 97.8045463,27.4206708 C97.2424329,28.2412272 96.4994205,28.8970164 95.5754869,29.3880581 C94.6515532,29.8790997 93.5951834,30.1246169 92.4063458,30.1246169 C91.0753645,30.1246169 89.8994666,29.8274119 88.8786169,29.2329931 C87.8577671,28.6385743 87.0695279,27.8147996 86.5138755,26.7616445 C85.9582231,25.7084894 85.6804011,24.5035172 85.6804011,23.1466916 C85.6804011,21.789866 85.9582231,20.5848937 86.5138755,19.5317386 C87.0695279,18.4785835 87.8545367,17.6580394 88.8689253,17.0700816 C89.883314,16.4821238 91.0559814,16.1881494 92.3869627,16.1881494 Z M109.269665,27.0233167 L103.493494,27.0233167 L102.446805,29.988935 L100.082064,29.988935 L105.121676,16.5176625 L107.660866,16.5176625 L112.681095,29.988935 L110.316354,29.988935 L109.269665,27.0233167 Z M108.649405,25.3176017 L106.38158,18.9211701 L104.113754,25.3176017 L108.649405,25.3176017 Z M123.1286,16.3044481 L123.1286,18.0876957 L119.310124,18.0876957 L119.310124,29.988935 L117.081065,29.988935 L117.081065,18.0876957 L113.281972,18.0876957 L113.281972,16.3044481 L123.1286,16.3044481 Z M133.576105,16.3044481 L133.576105,18.0876957 L129.757629,18.0876957 L129.757629,29.988935 L127.52857,29.988935 L127.52857,18.0876957 L123.729477,18.0876957 L123.729477,16.3044481 L133.576105,16.3044481 Z M141.561953,16.13 C142.828324,16.13 143.975147,16.427205 145.002458,17.0216238 C146.029769,17.6160426 146.837391,18.4462782 147.425349,19.5123555 C148.013306,20.5784327 148.307281,21.783405 148.307281,23.1273084 C148.307281,24.4712119 148.013306,25.6761842 147.425349,26.7422614 C146.837391,27.8083387 146.029769,28.6418047 145.002458,29.2426846 C143.975147,29.8435646 142.828324,30.144 141.561953,30.144 C140.28266,30.144 139.129376,29.8435646 138.102065,29.2426846 C137.074754,28.6418047 136.263902,27.8083387 135.669483,26.7422614 C135.075064,25.6761842 134.777859,24.4712119 134.777859,23.1273084 C134.777859,21.783405 135.075064,20.5784327 135.669483,19.5123555 C136.263902,18.4462782 137.074754,17.6160426 138.102065,17.0216238 C139.129376,16.427205 140.28266,16.13 141.561953,16.13 Z M141.561953,18.1846113 C140.683247,18.1846113 139.901469,18.3849016 139.216595,18.7854882 C138.531721,19.1860748 137.99869,19.7611018 137.617487,20.5105864 C137.236283,21.2600711 137.045685,22.132303 137.045685,23.1273084 C137.045685,24.1223139 137.236283,24.9945458 137.617487,25.7440304 C137.99869,26.493515 138.531721,27.068542 139.216595,27.4691286 C139.901469,27.8697152 140.683247,28.0700055 141.561953,28.0700055 C142.427737,28.0700055 143.199824,27.8697152 143.878237,27.4691286 C144.556649,27.068542 145.086449,26.493515 145.467653,25.7440304 C145.848856,24.9945458 146.039455,24.1223139 146.039455,23.1273084 C146.039455,22.132303 145.848856,21.2600711 145.467653,20.5105864 C145.086449,19.7611018 144.556649,19.1860748 143.878237,18.7854882 C143.199824,18.3849016 142.427737,18.1846113 141.561953,18.1846113 Z" id="CARBOGATTO" fill="#C2C7CC" fill-rule="nonzero"></path>
            <g id="Group-2" transform="translate(12.000000, 15.500000) scale(-1, 1) translate(-12.000000, -15.500000) " fill="#1D1E1F" stroke="#72BADF" stroke-width="3">
                <path d="M16,16.7320508 L10.5717968,19.8660254 L10.5717968,26.1339746 L16,29.2679492 L21.4282032,26.1339746 L21.4282032,19.8660254 L16,16.7320508 Z" id="Polygon"></path>
                <path d="M8,1.73205081 L2.57179677,4.8660254 L2.57179677,11.1339746 L8,14.2679492 L13.4282032,11.1339746 L13.4282032,4.8660254 L8,1.73205081 Z" id="Polygon-Copy"></path>
            </g>
        </g>
    </g>
</svg>