<?xml version="1.0" encoding="UTF-8"?>
<svg width="48px" height="16px" viewBox="0 0 48 16" version="1.1" xmlns="http://www.w3.org/2000/svg" xmlns:xlink="http://www.w3.org/1999/xlink">
    <!-- Generator: Sketch 55 (78076) - https://sketchapp.com -->
    <title>Artboard Copy 3</title>
    <desc>Created with Sketch.</desc>
    <g id="Artboard-Copy-3" stroke="none" stroke-width="1" fill="none" fill-rule="evenodd">
        <g id="Group-7" transform="translate(0.000000, 0.000000)" stroke="#72BADF">
            <rect id="Rectangle" x="24.8809524" y="0.5" width="1" height="14.2380952" rx="0.5"></rect>
            <rect id="Rectangle-Copy" x="40.1190476" y="3.54761905" width="1" height="8.14285714" rx="0.5"></rect>
            <rect id="Rectangle-Copy-2" x="43.1666667" y="2.02380952" width="1" height="11.952381" rx="0.5"></rect>
            <rect id="Rectangle-Copy-3" x="46.2142857" y="4.30952381" width="1" height="7.38095238" rx="0.5"></rect>
            <rect id="Rectangle-Copy-14" x="3.54761905" y="5.83333333" width="1" height="4.33333333" rx="0.5"></rect>
            <rect id="Rectangle-Copy-15" x="0.5" y="7.35714286" width="1" height="1" rx="0.5"></rect>
            <rect id="Rectangle-Copy-8" x="21.8333333" y="2.02380952" width="1" height="11.1904762" rx="0.5"></rect>
            <rect id="Rectangle-Copy-9" x="18.7857143" y="3.54761905" width="1" height="8.9047619" rx="0.5"></rect>
            <rect id="Rectangle-Copy-10" x="15.7380952" y="4.30952381" width="1" height="6.61904762" rx="0.5"></rect>
            <rect id="Rectangle-Copy-11" x="12.6904762" y="4.30952381" width="1" height="7.38095238" rx="0.5"></rect>
            <rect id="Rectangle-Copy-12" x="9.64285714" y="2.02380952" width="1" height="11.952381" rx="0.5"></rect>
            <rect id="Rectangle-Copy-13" x="6.5952381" y="1.26190476" width="1" height="12.7142857" rx="0.5"></rect>
            <rect id="Rectangle-Copy-4" x="37.0714286" y="4.30952381" width="1" height="6.61904762" rx="0.5"></rect>
            <rect id="Rectangle-Copy-5" x="34.0238095" y="2.02380952" width="1" height="11.1904762" rx="0.5"></rect>
            <rect id="Rectangle-Copy-7" x="27.9285714" y="0.5" width="1" height="15" rx="0.5"></rect>
            <rect id="Rectangle-Copy-6" x="30.9761905" y="1.26190476" width="1" height="13.4761905" rx="0.5"></rect>
        </g>
    </g>
</svg>